<svg width="16" height="16" xmlns="http://www.w3.org/2000/svg">
 <metadata id="metadata10">image/svg+xml</metadata>

 <g>
  <title>background</title>
  <rect fill="none" id="canvas_background" height="602" width="802" y="-1" x="-1"/>
 </g>
 <g>
  <title>Layer 1</title>
  <path fill="#ff7f00" id="path2" d="m1.58789,4c-0.87055,0 -1.58789,0.71734 -1.58789,1.58789l0,4.82422c0,0.87055 0.71734,1.58789 1.58789,1.58789l10.82422,0c0.87055,0 1.58789,-0.71734 1.58789,-1.58789l0,-0.41211l1,0c0.54653,0 1,-0.45347 1,-1l0,-2c0,-0.54653 -0.45347,-1 -1,-1l-1,0l0,-0.41211c0,-0.87055 -0.71734,-1.58789 -1.58789,-1.58789l-10.82422,0zm0,1l10.82422,0c0.32944,0 0.58789,0.25845 0.58789,0.58789l0,4.82422c0,0.32944 -0.25845,0.58789 -0.58789,0.58789l-10.82422,0c-0.32944,0 -0.58789,-0.25845 -0.58789,-0.58789l0,-4.82422c0,-0.32944 0.25845,-0.58789 0.58789,-0.58789zm0.41211,1l0,4l2,0l0,-4l-2,0zm12,1l1,0l0,2l-1,0l0,-2z"/>
 </g>
</svg>