<svg xmlns="http://www.w3.org/2000/svg" shape-rendering="geometricPrecision" text-rendering="geometricPrecision" image-rendering="optimizeQuality" fill-rule="evenodd" clip-rule="evenodd" viewBox="0 0 512 303.51"><path fill-rule="nonzero" d="M462.99 235.67v-24.12h37.15c3.29 0 6.25-1.35 8.38-3.48a11.89 11.89 0 0 0 3.48-8.39v-95.87c0-3.26-1.36-6.25-3.49-8.38-2.13-2.13-5.11-3.49-8.37-3.49h-37.15V67.83c0-20.79-17.03-37.79-37.8-37.79H306.05l-4.55 24.97h120.98c8.53 0 15.53 6.98 15.53 15.53v162.42c0 8.52-7.01 15.53-15.53 15.53H268.07l-15.56 24.98h172.68c20.81 0 37.8-16.98 37.8-37.8zM258.98 117.91h37.01c7.85.03 12.33 8.8 8.07 15.17L200.7 298.89c-5.56 9.09-19.94 3.71-17.84-6.97l28.17-107.6-43.9.74c-7.59.14-12.27-8.08-8.51-14.6L260.63 4.69c5.39-8.93 19.33-4.15 17.97 6.28l-19.62 106.94zm-50.82-87.87H37.79C16.99 30.04 0 47.03 0 67.83v167.84c0 20.78 17.03 37.8 37.79 37.8h118.4l6.54-24.98H40.5c-8.54 0-15.53-6.99-15.53-15.53V70.54c0-8.51 7.02-15.53 15.53-15.53h152.09c5.18-8.38 10.37-16.71 15.57-24.97z"/></svg>